# xmcd
#
# Track frame offsets:
#	150
#	11903
#	28681
#	55135
#	88842
#	100722
#	128286
#	157480
#	182835
#	202254
#
# Disc length: 2987 seconds
#
# Revision: 1
# Processed by: cddbd v1.5.2PL0 Copyright (c) Steve Scherf et al.
# Submitted via: audiograbber 1.83.01
#
DISCID=880ba90a
DTITLE=groove society - looky here
DYEAR=1996
DGENRE=blues
TTITLE0=let the good times roll
TTITLE1=sleepwalk
TTITLE2=you don't love me
TTITLE3=the thrill is gone
TTITLE4=groove #41
TTITLE5=down home blues
TTITLE6=you've got a hard head
TTITLE7=crosscut saw
TTITLE8=teeny weenie bit
TTITLE9=part time love
EXTD=
EXTT0=
EXTT1=
EXTT2=
EXTT3=
EXTT4=
EXTT5=
EXTT6=
EXTT7=
EXTT8=
EXTT9=
PLAYORDER=
